<svg xmlns="http://www.w3.org/2000/svg" viewBox="0 0 829 1329" width="829" height="1329">
  <rect width="829" height="1329" fill="white"/>
  <text x="414.5" y="12.299999999999999" text-anchor="middle" dominant-baseline="central" font-family='"Segoe Print", "Comic Sans MS", cursive' font-size="18" fill="#333333" font-weight="bold"><tspan x="414.5" dy="0">Sketchdraw</tspan><tspan x="414.5" dy="23.400000000000002">Architecture</tspan></text>
  <g transform="translate(0, 40)">
<g class="group" data-id="core_group">
<path d="M 50.0 487.1 L 752.9 486.1 L 751.5 865.8 L 53.9 867.0 Z" fill="#E8E8E8" fill-opacity="0.05" stroke="none"/>
<path d="M 49.2 487.7 Q 401.6 485.6 753.7 486.0" fill="none" stroke="#E8E8E8" stroke-width="1.5" stroke-linecap="round" stroke-dasharray="6,4"/>
<path d="M 49.6 486.9 Q 400.5 485.6 752.5 486.4" fill="none" stroke="#E8E8E8" stroke-width="0.75" stroke-linecap="round" opacity="0.3" stroke-dasharray="6,4"/>
<path d="M 753.4 485.2 Q 752.4 677.3 751.6 865.0" fill="none" stroke="#E8E8E8" stroke-width="1.5" stroke-linecap="round" stroke-dasharray="6,4"/>
<path d="M 752.9 486.0 Q 753.7 675.8 751.2 865.2" fill="none" stroke="#E8E8E8" stroke-width="0.75" stroke-linecap="round" opacity="0.3" stroke-dasharray="6,4"/>
<path d="M 752.3 866.4 Q 400.8 868.4 54.0 867.6" fill="none" stroke="#E8E8E8" stroke-width="1.5" stroke-linecap="round" stroke-dasharray="6,4"/>
<path d="M 751.4 865.5 Q 403.2 865.8 53.7 867.2" fill="none" stroke="#E8E8E8" stroke-width="0.75" stroke-linecap="round" opacity="0.3" stroke-dasharray="6,4"/>
<path d="M 54.0 866.4 Q 51.4 675.3 49.9 486.8" fill="none" stroke="#E8E8E8" stroke-width="1.5" stroke-linecap="round" stroke-dasharray="6,4"/>
<path d="M 54.5 867.1 Q 50.7 675.3 49.5 487.7" fill="none" stroke="#E8E8E8" stroke-width="0.75" stroke-linecap="round" opacity="0.3" stroke-dasharray="6,4"/>
<text x="64" y="493.2" text-anchor="start" dominant-baseline="central" font-family='"Segoe Print", "Comic Sans MS", cursive' font-size="12" fill="#E8E8E8"><tspan x="64" dy="0">Core Library</tspan><tspan x="64" dy="15.600000000000001">(@sketchdraw/core)</tspan></text>
</g>
<g class="group" data-id="entry_group">
<path d="M 66.7 277.8 L 775.7 277.2 L 779.0 395.8 L 67.7 396.6 Z" fill="#F0E8E8" fill-opacity="0.05" stroke="none"/>
<path d="M 66.1 278.4 Q 421.0 278.5 776.4 276.4" fill="none" stroke="#F0E8E8" stroke-width="1.5" stroke-linecap="round" stroke-dasharray="6,4"/>
<path d="M 66.9 277.7 Q 419.4 276.0 775.4 277.2" fill="none" stroke="#F0E8E8" stroke-width="0.75" stroke-linecap="round" opacity="0.3" stroke-dasharray="6,4"/>
<path d="M 776.7 276.9 Q 777.4 334.9 779.5 395.3" fill="none" stroke="#F0E8E8" stroke-width="1.5" stroke-linecap="round" stroke-dasharray="6,4"/>
<path d="M 775.7 277.1 Q 778.0 338.1 779.5 395.7" fill="none" stroke="#F0E8E8" stroke-width="0.75" stroke-linecap="round" opacity="0.3" stroke-dasharray="6,4"/>
<path d="M 779.6 396.5 Q 425.3 395.5 68.2 396.7" fill="none" stroke="#F0E8E8" stroke-width="1.5" stroke-linecap="round" stroke-dasharray="6,4"/>
<path d="M 778.8 395.6 Q 424.7 396.3 67.5 396.5" fill="none" stroke="#F0E8E8" stroke-width="0.75" stroke-linecap="round" opacity="0.3" stroke-dasharray="6,4"/>
<path d="M 66.9 396.6 Q 67.5 337.8 66.6 276.8" fill="none" stroke="#F0E8E8" stroke-width="1.5" stroke-linecap="round" stroke-dasharray="6,4"/>
<path d="M 67.7 397.1 Q 68.0 336.8 66.3 277.7" fill="none" stroke="#F0E8E8" stroke-width="0.75" stroke-linecap="round" opacity="0.3" stroke-dasharray="6,4"/>
<text x="79" y="291" text-anchor="start" dominant-baseline="central" font-family='"Segoe Print", "Comic Sans MS", cursive' font-size="12" fill="#F0E8E8">Entry Points</text>
</g>
<g class="group" data-id="output_group">
<path d="M 156.2 956.6 L 631.0 956.5 L 632.8 1238.7 L 155.1 1236.9 Z" fill="#E8F0E8" fill-opacity="0.05" stroke="none"/>
<path d="M 155.4 956.4 Q 394.9 956.7 630.2 957.1" fill="none" stroke="#E8F0E8" stroke-width="1.5" stroke-linecap="round" stroke-dasharray="6,4"/>
<path d="M 156.3 956.4 Q 393.1 954.9 630.7 956.3" fill="none" stroke="#E8F0E8" stroke-width="0.75" stroke-linecap="round" opacity="0.3" stroke-dasharray="6,4"/>
<path d="M 630.4 956.0 Q 631.2 1098.1 633.8 1238.1" fill="none" stroke="#E8F0E8" stroke-width="1.5" stroke-linecap="round" stroke-dasharray="6,4"/>
<path d="M 631.3 956.0 Q 632.6 1097.7 632.7 1238.4" fill="none" stroke="#E8F0E8" stroke-width="0.75" stroke-linecap="round" opacity="0.3" stroke-dasharray="6,4"/>
<path d="M 633.8 1239.2 Q 393.2 1236.5 155.2 1236.9" fill="none" stroke="#E8F0E8" stroke-width="1.5" stroke-linecap="round" stroke-dasharray="6,4"/>
<path d="M 632.6 1238.6 Q 393.9 1237.3 155.0 1236.8" fill="none" stroke="#E8F0E8" stroke-width="0.75" stroke-linecap="round" opacity="0.3" stroke-dasharray="6,4"/>
<path d="M 154.3 1237.4 Q 154.9 1096.2 156.0 955.7" fill="none" stroke="#E8F0E8" stroke-width="1.5" stroke-linecap="round" stroke-dasharray="6,4"/>
<path d="M 154.7 1237.4 Q 155.0 1096.9 156.7 957.2" fill="none" stroke="#E8F0E8" stroke-width="0.75" stroke-linecap="round" opacity="0.3" stroke-dasharray="6,4"/>
<text x="169" y="971" text-anchor="start" dominant-baseline="central" font-family='"Segoe Print", "Comic Sans MS", cursive' font-size="12" fill="#E8F0E8">Output</text>
</g>
<g class="edge" data-from="input" data-to="cli">
<path d="M 367.0 111.4 Q 368.2 155.9 367.7 202.6" fill="none" stroke="#666666" stroke-width="1.5" stroke-linecap="round"/>
<path d="M 367.2 112.2 Q 368.9 156.4 367.5 201.5" fill="none" stroke="#666666" stroke-width="0.75" stroke-linecap="round" opacity="0.3"/>
<path d="M 368.0 201.3 Q 480.2 204.0 591.7 201.1" fill="none" stroke="#666666" stroke-width="1.5" stroke-linecap="round"/>
<path d="M 367.0 201.6 Q 479.7 200.7 592.4 201.7" fill="none" stroke="#666666" stroke-width="0.75" stroke-linecap="round" opacity="0.3"/>
<path d="M 592.5 201.8 Q 590.9 253.9 592.9 307.2" fill="none" stroke="#666666" stroke-width="1.5" stroke-linecap="round"/>
<path d="M 592.5 202.0 Q 591.8 255.0 592.0 306.5" fill="none" stroke="#666666" stroke-width="0.75" stroke-linecap="round" opacity="0.3"/>
<polygon points="591.8,306.9 587.1,297.9 597.5,298.8" fill="#666666" stroke="#666666" stroke-width="0.75" stroke-linejoin="round"/>
<rect x="438.5" y="190.0" width="82.0" height="20.0" rx="3" ry="3" fill="white" fill-opacity="0.9" stroke="none"/>
<text x="479.5" y="200" text-anchor="middle" dominant-baseline="central" font-family='"Segoe Print", "Comic Sans MS", cursive' font-size="12" fill="#666666">file/stdin</text>
</g>
<g class="edge" data-from="input" data-to="mcp">
<path d="M 257.0 112.3 Q 255.9 210.8 257.0 306.1" fill="none" stroke="#666666" stroke-width="1.5" stroke-linecap="round"/>
<path d="M 256.6 112.4 Q 257.5 210.2 256.7 306.5" fill="none" stroke="#666666" stroke-width="0.75" stroke-linecap="round" opacity="0.3"/>
<polygon points="256.5,307.2 251.6,299.0 263.3,298.6" fill="#666666" stroke="#666666" stroke-width="0.75" stroke-linejoin="round"/>
<rect x="205.5" y="197.5" width="103.0" height="20.0" rx="3" ry="3" fill="white" fill-opacity="0.9" stroke="none"/>
<text x="257" y="207.5" text-anchor="middle" dominant-baseline="central" font-family='"Segoe Print", "Comic Sans MS", cursive' font-size="12" fill="#666666">MCP tool call</text>
</g>
<g class="edge" data-from="cli" data-to="parse">
<path d="M 591.7 366.8 Q 591.5 389.5 592.7 412.7" fill="none" stroke="#666666" stroke-width="1.5" stroke-linecap="round"/>
<path d="M 591.5 367.3 Q 593.7 389.7 591.7 412.1" fill="none" stroke="#666666" stroke-width="0.75" stroke-linecap="round" opacity="0.3"/>
<path d="M 592.3 412.8 Q 480.9 411.9 373.3 412.8" fill="none" stroke="#666666" stroke-width="1.5" stroke-linecap="round"/>
<path d="M 592.0 412.5 Q 484.7 411.8 373.1 411.4" fill="none" stroke="#666666" stroke-width="0.75" stroke-linecap="round" opacity="0.3"/>
<path d="M 373.5 412.1 Q 373.6 464.7 374.0 517.2" fill="none" stroke="#666666" stroke-width="1.5" stroke-linecap="round"/>
<path d="M 374.0 412.4 Q 374.2 463.0 374.2 516.9" fill="none" stroke="#666666" stroke-width="0.75" stroke-linecap="round" opacity="0.3"/>
<polygon points="373.6,516.8 367.5,508.4 380.0,509.5" fill="#666666" stroke="#666666" stroke-width="0.75" stroke-linejoin="round"/>
</g>
<g class="edge" data-from="mcp" data-to="parse">
<path d="M 256.7 366.6 Q 259.0 443.2 256.1 517.9" fill="none" stroke="#666666" stroke-width="1.5" stroke-linecap="round"/>
<path d="M 257.3 367.4 Q 257.5 443.7 256.6 517.0" fill="none" stroke="#666666" stroke-width="0.75" stroke-linecap="round" opacity="0.3"/>
<polygon points="257.3,517.3 250.8,508.1 261.9,508.4" fill="#666666" stroke="#666666" stroke-width="0.75" stroke-linejoin="round"/>
</g>
<g class="edge" data-from="parse" data-to="flowlayout">
<path d="M 362.2 130.2 Q 360.6 134.7 361.7 140.6" fill="none" stroke="#666666" stroke-width="1.5" stroke-linecap="round"/>
<path d="M 361.3 130.2 Q 362.9 134.1 361.3 139.9" fill="none" stroke="#666666" stroke-width="0.75" stroke-linecap="round" opacity="0.3"/>
<path d="M 360.9 140.2 Q 467.3 140.5 574.7 139.3" fill="none" stroke="#666666" stroke-width="1.5" stroke-linecap="round"/>
<path d="M 361.5 140.5 Q 468.5 139.6 574.4 139.5" fill="none" stroke="#666666" stroke-width="0.75" stroke-linecap="round" opacity="0.3"/>
<path d="M 575.7 140.1 Q 574.1 155.8 574.0 170.6" fill="none" stroke="#666666" stroke-width="1.5" stroke-linecap="round"/>
<path d="M 574.6 139.9 Q 574.5 153.5 574.4 169.7" fill="none" stroke="#666666" stroke-width="0.75" stroke-linecap="round" opacity="0.3"/>
<polygon points="575.3,169.5 570.0,161.0 579.5,162.0" fill="#666666" stroke="#666666" stroke-width="0.75" stroke-linejoin="round"/>
<rect x="430.8" y="128.0" width="75.0" height="20.0" rx="3" ry="3" fill="white" fill-opacity="0.9" stroke="none"/>
<text x="468.33333333333337" y="138" text-anchor="middle" dominant-baseline="central" font-family='"Segoe Print", "Comic Sans MS", cursive' font-size="12" fill="#666666">flow type</text>
</g>
<g class="edge" data-from="parse" data-to="seqlayout">
<path d="M 245.0 130.5 Q 246.5 150.2 246.0 169.6" fill="none" stroke="#666666" stroke-width="1.5" stroke-linecap="round"/>
<path d="M 245.0 130.2 Q 245.9 149.1 244.7 169.9" fill="none" stroke="#666666" stroke-width="0.75" stroke-linecap="round" opacity="0.3"/>
<polygon points="244.8,170.0 239.8,161.8 249.9,161.9" fill="#666666" stroke="#666666" stroke-width="0.75" stroke-linejoin="round"/>
<rect x="193.5" y="138.0" width="103.0" height="20.0" rx="3" ry="3" fill="white" fill-opacity="0.9" stroke="none"/>
<text x="245" y="148" text-anchor="middle" dominant-baseline="central" font-family='"Segoe Print", "Comic Sans MS", cursive' font-size="12" fill="#666666">sequence type</text>
</g>
<g class="edge" data-from="flowlayout" data-to="render">
<path d="M 575.4 230.6 Q 575.0 234.4 575.8 239.9" fill="none" stroke="#666666" stroke-width="1.5" stroke-linecap="round"/>
<path d="M 574.6 229.9 Q 574.7 234.3 575.3 240.5" fill="none" stroke="#666666" stroke-width="0.75" stroke-linecap="round" opacity="0.3"/>
<path d="M 575.0 239.0 Q 466.3 240.5 355.9 240.1" fill="none" stroke="#666666" stroke-width="1.5" stroke-linecap="round"/>
<path d="M 574.8 239.9 Q 463.8 241.0 354.6 239.6" fill="none" stroke="#666666" stroke-width="0.75" stroke-linecap="round" opacity="0.3"/>
<path d="M 355.5 240.4 Q 354.3 246.7 355.5 249.7" fill="none" stroke="#666666" stroke-width="1.5" stroke-linecap="round"/>
<path d="M 355.2 239.7 Q 354.8 245.3 355.3 250.2" fill="none" stroke="#666666" stroke-width="0.75" stroke-linecap="round" opacity="0.3"/>
<polygon points="355.4,250.5 349.0,240.9 361.0,241.3" fill="#666666" stroke="#666666" stroke-width="0.75" stroke-linejoin="round"/>
</g>
<g class="edge" data-from="seqlayout" data-to="render">
<path d="M 244.7 229.5 Q 246.5 239.4 245.1 250.6" fill="none" stroke="#666666" stroke-width="1.5" stroke-linecap="round"/>
<path d="M 244.8 229.5 Q 246.2 241.4 244.6 249.8" fill="none" stroke="#666666" stroke-width="0.75" stroke-linecap="round" opacity="0.3"/>
<polygon points="244.7,250.1 240.0,242.1 250.6,242.1" fill="#666666" stroke="#666666" stroke-width="0.75" stroke-linejoin="round"/>
</g>
<g class="edge" data-from="render" data-to="svg_out">
<path d="M 366.8 756.7 Q 368.3 760.1 367.8 767.2" fill="none" stroke="#666666" stroke-width="1.5" stroke-linecap="round"/>
<path d="M 367.6 757.3 Q 366.1 761.3 366.9 767.0" fill="none" stroke="#666666" stroke-width="0.75" stroke-linecap="round" opacity="0.3"/>
<path d="M 366.4 767.7 Q 388.0 765.3 412.5 766.6" fill="none" stroke="#666666" stroke-width="1.5" stroke-linecap="round"/>
<path d="M 366.7 766.7 Q 387.5 765.1 412.1 767.5" fill="none" stroke="#666666" stroke-width="0.75" stroke-linecap="round" opacity="0.3"/>
<path d="M 412.6 766.1 Q 411.7 824.3 412.9 881.5" fill="none" stroke="#666666" stroke-width="1.5" stroke-linecap="round"/>
<path d="M 411.6 766.4 Q 413.4 824.8 412.0 882.0" fill="none" stroke="#666666" stroke-width="0.75" stroke-linecap="round" opacity="0.3"/>
<path d="M 412.8 882.8 Q 414.5 880.6 417.5 882.6" fill="none" stroke="#666666" stroke-width="1.5" stroke-linecap="round"/>
<path d="M 411.7 881.5 Q 414.6 881.2 417.6 881.6" fill="none" stroke="#666666" stroke-width="0.75" stroke-linecap="round" opacity="0.3"/>
<path d="M 417.1 882.6 Q 418.7 936.0 416.3 987.4" fill="none" stroke="#666666" stroke-width="1.5" stroke-linecap="round"/>
<path d="M 416.6 882.6 Q 416.1 936.3 416.5 987.5" fill="none" stroke="#666666" stroke-width="0.75" stroke-linecap="round" opacity="0.3"/>
<polygon points="416.7,986.9 412.4,979.2 422.9,979.5" fill="#666666" stroke="#666666" stroke-width="0.75" stroke-linejoin="round"/>
</g>
<g class="edge" data-from="render" data-to="export">
<path d="M 244.9 310.7 Q 243.7 318.6 245.5 329.2" fill="none" stroke="#666666" stroke-width="1.5" stroke-linecap="round"/>
<path d="M 244.7 309.8 Q 243.8 321.5 245.3 329.8" fill="none" stroke="#666666" stroke-width="0.75" stroke-linecap="round" opacity="0.3"/>
<polygon points="245.6,330.0 239.1,321.6 249.6,321.2" fill="#666666" stroke="#666666" stroke-width="0.75" stroke-linejoin="round"/>
</g>
<g class="edge" data-from="export" data-to="png_out">
<path d="M 257.6 837.1 Q 255.9 912.5 257.4 986.6" fill="none" stroke="#666666" stroke-width="1.5" stroke-linecap="round"/>
<path d="M 257.5 837.1 Q 257.5 911.6 256.9 987.4" fill="none" stroke="#666666" stroke-width="0.75" stroke-linecap="round" opacity="0.3"/>
<polygon points="256.4,987.4 251.5,979.5 261.9,979.0" fill="#666666" stroke="#666666" stroke-width="0.75" stroke-linejoin="round"/>
</g>
<g class="edge" data-from="svg_out" data-to="preview">
<path d="M 299.7 129.2 Q 299.0 141.5 299.8 150.5" fill="none" stroke="#666666" stroke-width="1.5" stroke-linecap="round" stroke-dasharray="8,4"/>
<path d="M 300.4 129.7 Q 301.7 139.3 300.1 150.4" fill="none" stroke="#666666" stroke-width="0.75" stroke-linecap="round" opacity="0.3" stroke-dasharray="8,4"/>
<polygon points="300.2,150.4 294.5,142.0 305.6,140.6" fill="#666666" stroke="#666666" stroke-width="0.75" stroke-linejoin="round"/>
</g>
<g class="edge" data-from="preview" data-to="browser">
<path d="M 300.2 209.4 Q 300.9 218.9 300.3 229.9" fill="none" stroke="#666666" stroke-width="1.5" stroke-linecap="round"/>
<path d="M 300.5 209.6 Q 300.1 220.8 299.5 230.3" fill="none" stroke="#666666" stroke-width="0.75" stroke-linecap="round" opacity="0.3"/>
<polygon points="300.4,230.3 295.1,221.4 305.1,221.5" fill="#666666" stroke="#666666" stroke-width="0.75" stroke-linejoin="round"/>
</g>
<g class="node" data-id="input">
<path d="M 313.9 59.9 C 346.4 47.7, 443.6 53.4, 418.1 68.4 C 494.2 65.6, 482.0 84.1, 449.1 84.6 C 476.0 98.5, 442.3 104.3, 410.4 99.1 C 361.1 110.0, 263.6 110.4, 311.7 103.6 C 246.5 107.5, 178.7 107.7, 213.6 98.5 C 141.8 98.4, 140.3 85.5, 174.9 83.4 C 130.2 67.9, 178.8 54.8, 206.4 67.8 C 230.2 49.4, 278.1 48.6, 313.9 59.9 Z" fill="#FFE5B4" fill-opacity="0.15" stroke="#b3a07e" stroke-width="1.5" stroke-linecap="round" stroke-linejoin="round"/>
<path d="M 313.9 59.9 C 346.4 47.7, 443.6 53.4, 418.1 68.4 C 494.2 65.6, 482.0 84.1, 449.1 84.6 C 476.0 98.5, 442.3 104.3, 410.4 99.1 C 361.1 110.0, 263.6 110.4, 311.7 103.6 C 246.5 107.5, 178.7 107.7, 213.6 98.5 C 141.8 98.4, 140.3 85.5, 174.9 83.4 C 130.2 67.9, 178.8 54.8, 206.4 67.8 C 230.2 49.4, 278.1 48.6, 313.9 59.9 Z" fill="none" stroke="#b3a07e" stroke-width="0.75" stroke-linecap="round" opacity="0.2" transform="translate(0.4, -0.9)"/>
<text x="312" y="75.30000000000001" text-anchor="middle" dominant-baseline="central" font-family='"Segoe Print", "Comic Sans MS", cursive' font-size="14" fill="#333333"><tspan x="312" dy="0">User Input (JSON</tspan><tspan x="312" dy="18.2">Diagram Def)</tspan></text>
</g>
<g class="node" data-id="cli">
<path d="M 437.0 308.3 L 747.8 307.1 L 748.6 368.0 L 436.8 365.9 Z" fill="#B4D7FF" fill-opacity="0.15" stroke="none"/>
<path d="M 436.1 307.9 Q 592.8 309.0 747.9 307.6" fill="none" stroke="#7e97b3" stroke-width="1.5" stroke-linecap="round"/>
<path d="M 437.4 308.9 Q 591.9 308.4 748.2 307.6" fill="none" stroke="#7e97b3" stroke-width="0.75" stroke-linecap="round" opacity="0.3"/>
<path d="M 747.4 307.6 Q 747.9 338.6 748.0 367.0" fill="none" stroke="#7e97b3" stroke-width="1.5" stroke-linecap="round"/>
<path d="M 748.3 306.9 Q 748.9 337.3 748.8 368.4" fill="none" stroke="#7e97b3" stroke-width="0.75" stroke-linecap="round" opacity="0.3"/>
<path d="M 749.1 368.0 Q 592.9 368.3 435.9 366.8" fill="none" stroke="#7e97b3" stroke-width="1.5" stroke-linecap="round"/>
<path d="M 748.9 367.9 Q 592.6 367.4 436.3 365.5" fill="none" stroke="#7e97b3" stroke-width="0.75" stroke-linecap="round" opacity="0.3"/>
<path d="M 437.1 365.1 Q 438.5 338.5 436.1 307.8" fill="none" stroke="#7e97b3" stroke-width="1.5" stroke-linecap="round"/>
<path d="M 437.0 366.1 Q 437.9 335.3 437.0 308.4" fill="none" stroke="#7e97b3" stroke-width="0.75" stroke-linecap="round" opacity="0.3"/>
<text x="592" y="327.9" text-anchor="middle" dominant-baseline="central" font-family='"Segoe Print", "Comic Sans MS", cursive' font-size="14" fill="#333333"><tspan x="592" dy="0">CLI Entry Point</tspan><tspan x="592" dy="18.2">(Commander)</tspan></text>
</g>
<g class="node" data-id="mcp">
<path d="M 97.9 306.7 L 417.5 305.2 L 418.2 368.8 L 97.3 369.0 Z" fill="#B4D7FF" fill-opacity="0.15" stroke="none"/>
<path d="M 98.8 306.4 Q 258.5 305.3 418.4 304.3" fill="none" stroke="#7e97b3" stroke-width="1.5" stroke-linecap="round"/>
<path d="M 98.2 307.2 Q 256.4 306.1 417.7 305.0" fill="none" stroke="#7e97b3" stroke-width="0.75" stroke-linecap="round" opacity="0.3"/>
<path d="M 416.5 304.4 Q 419.7 337.4 417.2 367.8" fill="none" stroke="#7e97b3" stroke-width="1.5" stroke-linecap="round"/>
<path d="M 417.8 305.7 Q 419.7 336.0 417.6 368.3" fill="none" stroke="#7e97b3" stroke-width="0.75" stroke-linecap="round" opacity="0.3"/>
<path d="M 418.4 368.3 Q 256.7 370.5 97.1 369.6" fill="none" stroke="#7e97b3" stroke-width="1.5" stroke-linecap="round"/>
<path d="M 418.8 368.3 Q 258.2 370.0 97.3 368.7" fill="none" stroke="#7e97b3" stroke-width="0.75" stroke-linecap="round" opacity="0.3"/>
<path d="M 96.5 368.0 Q 97.0 335.9 98.2 305.8" fill="none" stroke="#7e97b3" stroke-width="1.5" stroke-linecap="round"/>
<path d="M 97.6 369.0 Q 98.8 335.9 97.7 306.2" fill="none" stroke="#7e97b3" stroke-width="0.75" stroke-linecap="round" opacity="0.3"/>
<text x="257" y="327.9" text-anchor="middle" dominant-baseline="central" font-family='"Segoe Print", "Comic Sans MS", cursive' font-size="14" fill="#333333"><tspan x="257" dy="0">MCP Server (Stdio</tspan><tspan x="257" dy="18.2">Transport)</tspan></text>
</g>
<g class="node" data-id="parse">
<path d="M 141.2 516.3 L 489.0 518.7 L 490.2 576.9 L 139.5 577.0 Z" fill="#D4FFB4" fill-opacity="0.15" stroke="none"/>
<path d="M 140.4 516.7 Q 313.4 516.2 488.6 518.6" fill="none" stroke="#94b37e" stroke-width="1.5" stroke-linecap="round"/>
<path d="M 141.0 516.0 Q 315.3 517.3 488.5 518.6" fill="none" stroke="#94b37e" stroke-width="0.75" stroke-linecap="round" opacity="0.3"/>
<path d="M 488.9 518.9 Q 488.2 549.2 490.1 577.4" fill="none" stroke="#94b37e" stroke-width="1.5" stroke-linecap="round"/>
<path d="M 488.9 519.2 Q 489.8 546.9 490.0 576.4" fill="none" stroke="#94b37e" stroke-width="0.75" stroke-linecap="round" opacity="0.3"/>
<path d="M 490.4 576.9 Q 316.4 577.6 138.8 577.3" fill="none" stroke="#94b37e" stroke-width="1.5" stroke-linecap="round"/>
<path d="M 490.3 576.7 Q 313.0 578.1 139.2 576.8" fill="none" stroke="#94b37e" stroke-width="0.75" stroke-linecap="round" opacity="0.3"/>
<path d="M 139.9 576.0 Q 140.6 544.9 140.8 515.6" fill="none" stroke="#94b37e" stroke-width="1.5" stroke-linecap="round"/>
<path d="M 139.3 577.0 Q 140.3 546.7 140.8 516.0" fill="none" stroke="#94b37e" stroke-width="0.75" stroke-linecap="round" opacity="0.3"/>
<text x="315.3333333333333" y="537.9" text-anchor="middle" dominant-baseline="central" font-family='"Segoe Print", "Comic Sans MS", cursive' font-size="14" fill="#333333"><tspan x="315.3333333333333" dy="0">Schema Validation</tspan><tspan x="315.3333333333333" dy="18.2">(Zod Parsing)</tspan></text>
</g>
<g class="node" data-id="flowlayout">
<path d="M 452.1 616.9 L 721.9 618.3 L 720.9 678.6 L 451.3 675.3 Z" fill="#FFB4D7" fill-opacity="0.15" stroke="none"/>
<path d="M 452.7 617.7 Q 586.5 617.6 721.5 618.6" fill="none" stroke="#b37e97" stroke-width="1.5" stroke-linecap="round"/>
<path d="M 452.5 617.1 Q 586.7 618.8 721.8 618.0" fill="none" stroke="#b37e97" stroke-width="0.75" stroke-linecap="round" opacity="0.3"/>
<path d="M 721.1 618.9 Q 722.0 650.4 720.5 678.3" fill="none" stroke="#b37e97" stroke-width="1.5" stroke-linecap="round"/>
<path d="M 721.6 618.5 Q 723.2 648.5 721.0 679.0" fill="none" stroke="#b37e97" stroke-width="0.75" stroke-linecap="round" opacity="0.3"/>
<path d="M 720.0 678.2 Q 585.5 675.6 451.8 676.2" fill="none" stroke="#b37e97" stroke-width="1.5" stroke-linecap="round"/>
<path d="M 720.9 678.7 Q 584.9 677.5 451.2 674.8" fill="none" stroke="#b37e97" stroke-width="0.75" stroke-linecap="round" opacity="0.3"/>
<path d="M 451.6 675.0 Q 450.0 646.0 452.1 617.9" fill="none" stroke="#b37e97" stroke-width="1.5" stroke-linecap="round"/>
<path d="M 451.0 674.9 Q 450.5 647.9 452.6 616.4" fill="none" stroke="#b37e97" stroke-width="0.75" stroke-linecap="round" opacity="0.3"/>
<text x="587" y="637.9" text-anchor="middle" dominant-baseline="central" font-family='"Segoe Print", "Comic Sans MS", cursive' font-size="14" fill="#333333"><tspan x="587" dy="0">Flow Layout (ELK</tspan><tspan x="587" dy="18.2">Graph)</tspan></text>
</g>
<g class="node" data-id="seqlayout">
<path d="M 83.3 618.7 L 430.4 618.1 L 433.1 677.0 L 80.2 676.3 Z" fill="#FFB4D7" fill-opacity="0.15" stroke="none"/>
<path d="M 84.1 618.3 Q 257.4 617.0 430.7 618.4" fill="none" stroke="#b37e97" stroke-width="1.5" stroke-linecap="round"/>
<path d="M 83.6 619.1 Q 258.4 618.1 429.9 618.5" fill="none" stroke="#b37e97" stroke-width="0.75" stroke-linecap="round" opacity="0.3"/>
<path d="M 429.4 617.2 Q 430.2 646.5 433.6 678.0" fill="none" stroke="#b37e97" stroke-width="1.5" stroke-linecap="round"/>
<path d="M 430.3 618.2 Q 431.4 649.5 432.7 676.7" fill="none" stroke="#b37e97" stroke-width="0.75" stroke-linecap="round" opacity="0.3"/>
<path d="M 432.1 676.2 Q 255.0 676.1 81.1 676.0" fill="none" stroke="#b37e97" stroke-width="1.5" stroke-linecap="round"/>
<path d="M 432.6 676.6 Q 258.3 678.6 80.3 675.9" fill="none" stroke="#b37e97" stroke-width="0.75" stroke-linecap="round" opacity="0.3"/>
<path d="M 80.9 675.6 Q 82.2 647.0 82.3 618.6" fill="none" stroke="#b37e97" stroke-width="1.5" stroke-linecap="round"/>
<path d="M 80.1 676.0 Q 79.8 646.8 83.0 618.3" fill="none" stroke="#b37e97" stroke-width="0.75" stroke-linecap="round" opacity="0.3"/>
<text x="257" y="637.9" text-anchor="middle" dominant-baseline="central" font-family='"Segoe Print", "Comic Sans MS", cursive' font-size="14" fill="#333333"><tspan x="257" dy="0">Sequence Layout</tspan><tspan x="257" dy="18.2">(Position Calc)</tspan></text>
</g>
<g class="node" data-id="render">
<path d="M 147.0 697.4 L 475.7 696.9 L 475.2 755.8 L 145.2 756.0 Z" fill="#D7B4FF" fill-opacity="0.15" stroke="none"/>
<path d="M 146.6 698.2 Q 309.9 698.4 476.1 696.7" fill="none" stroke="#977eb3" stroke-width="1.5" stroke-linecap="round"/>
<path d="M 146.8 697.0 Q 310.6 698.0 476.1 696.4" fill="none" stroke="#977eb3" stroke-width="0.75" stroke-linecap="round" opacity="0.3"/>
<path d="M 476.4 695.9 Q 473.8 726.6 474.9 754.9" fill="none" stroke="#977eb3" stroke-width="1.5" stroke-linecap="round"/>
<path d="M 475.4 696.3 Q 474.0 724.7 475.7 755.5" fill="none" stroke="#977eb3" stroke-width="0.75" stroke-linecap="round" opacity="0.3"/>
<path d="M 474.7 756.2 Q 308.4 755.1 144.2 756.4" fill="none" stroke="#977eb3" stroke-width="1.5" stroke-linecap="round"/>
<path d="M 474.9 755.2 Q 310.1 754.3 144.8 756.2" fill="none" stroke="#977eb3" stroke-width="0.75" stroke-linecap="round" opacity="0.3"/>
<path d="M 145.8 756.1 Q 144.2 725.6 147.5 698.3" fill="none" stroke="#977eb3" stroke-width="1.5" stroke-linecap="round"/>
<path d="M 145.2 755.5 Q 146.0 726.2 146.9 697.4" fill="none" stroke="#977eb3" stroke-width="0.75" stroke-linecap="round" opacity="0.3"/>
<text x="312" y="717.9" text-anchor="middle" dominant-baseline="central" font-family='"Segoe Print", "Comic Sans MS", cursive' font-size="14" fill="#333333"><tspan x="312" dy="0">SVG Renderer</tspan><tspan x="312" dy="18.2">(Theme + Shapes)</tspan></text>
</g>
<g class="node" data-id="export">
<path d="M 112.5 775.8 L 401.5 778.0 L 402.1 837.7 L 110.4 835.4 Z" fill="#FFD7B4" fill-opacity="0.15" stroke="none"/>
<path d="M 113.3 776.3 Q 257.0 778.0 401.0 777.6" fill="none" stroke="#b3977e" stroke-width="1.5" stroke-linecap="round"/>
<path d="M 112.1 776.1 Q 257.4 775.0 401.5 777.9" fill="none" stroke="#b3977e" stroke-width="0.75" stroke-linecap="round" opacity="0.3"/>
<path d="M 400.5 777.2 Q 401.3 808.5 402.5 836.8" fill="none" stroke="#b3977e" stroke-width="1.5" stroke-linecap="round"/>
<path d="M 401.5 777.8 Q 401.5 807.0 402.7 837.1" fill="none" stroke="#b3977e" stroke-width="0.75" stroke-linecap="round" opacity="0.3"/>
<path d="M 401.6 838.3 Q 255.9 837.2 110.8 834.8" fill="none" stroke="#b3977e" stroke-width="1.5" stroke-linecap="round"/>
<path d="M 402.4 837.4 Q 256.8 838.4 110.8 835.0" fill="none" stroke="#b3977e" stroke-width="0.75" stroke-linecap="round" opacity="0.3"/>
<path d="M 110.8 834.4 Q 109.7 806.5 112.8 775.7" fill="none" stroke="#b3977e" stroke-width="1.5" stroke-linecap="round"/>
<path d="M 110.4 835.5 Q 113.0 805.9 112.5 776.0" fill="none" stroke="#b3977e" stroke-width="0.75" stroke-linecap="round" opacity="0.3"/>
<text x="257" y="797.9" text-anchor="middle" dominant-baseline="central" font-family='"Segoe Print", "Comic Sans MS", cursive' font-size="14" fill="#333333"><tspan x="257" dy="0">Export Module</tspan><tspan x="257" dy="18.2">(Resvg PNG)</tspan></text>
</g>
<g class="node" data-id="preview">
<path d="M 233.9 1068.7 L 601.9 1065.5 L 601.7 1128.9 L 230.4 1127.0 Z" fill="#B4E5FF" fill-opacity="0.15" stroke="none"/>
<path d="M 234.6 1068.1 Q 417.3 1065.3 602.0 1064.6" fill="none" stroke="#7ea0b3" stroke-width="1.5" stroke-linecap="round"/>
<path d="M 233.6 1068.4 Q 417.1 1066.6 602.3 1065.0" fill="none" stroke="#7ea0b3" stroke-width="0.75" stroke-linecap="round" opacity="0.3"/>
<path d="M 601.3 1064.9 Q 601.0 1095.9 601.6 1129.1" fill="none" stroke="#7ea0b3" stroke-width="1.5" stroke-linecap="round"/>
<path d="M 601.3 1065.4 Q 599.9 1098.6 601.6 1128.4" fill="none" stroke="#7ea0b3" stroke-width="0.75" stroke-linecap="round" opacity="0.3"/>
<path d="M 602.2 1129.8 Q 414.5 1127.4 230.5 1127.6" fill="none" stroke="#7ea0b3" stroke-width="1.5" stroke-linecap="round"/>
<path d="M 601.4 1129.2 Q 414.9 1128.1 230.5 1126.9" fill="none" stroke="#7ea0b3" stroke-width="0.75" stroke-linecap="round" opacity="0.3"/>
<path d="M 230.8 1128.0 Q 233.6 1098.6 233.7 1067.7" fill="none" stroke="#7ea0b3" stroke-width="1.5" stroke-linecap="round"/>
<path d="M 230.5 1126.7 Q 232.0 1099.5 234.4 1068.7" fill="none" stroke="#7ea0b3" stroke-width="0.75" stroke-linecap="round" opacity="0.3"/>
<text x="417" y="1087.9" text-anchor="middle" dominant-baseline="central" font-family='"Segoe Print", "Comic Sans MS", cursive' font-size="14" fill="#333333"><tspan x="417" dy="0">Preview Server</tspan><tspan x="417" dy="18.2">(WebSocket + HTTP)</tspan></text>
</g>
<g class="node" data-id="svg_out">
<rect x="347.0" y="996.0" width="140.0" height="42.0" fill="#B4FFD7" fill-opacity="0.15" stroke="none"/>
<path d="M 485.9 1037.8 C 479.1 1039.9, 474.7 1042.0, 467.6 1043.4 C 446.7 1043.5, 436.9 1043.5, 415.1 1045.1 C 396.7 1043.8, 385.9 1044.9, 366.9 1043.9 C 358.0 1041.8, 354.3 1040.1, 345.0 1036.5 C 353.9 1034.6, 358.1 1034.2, 366.7 1033.1 C 387.1 1031.0, 395.2 1030.9, 415.5 1028.3 C 437.1 1028.4, 446.2 1029.5, 468.2 1030.0 C 475.8 1033.3, 479.3 1035.4, 485.9 1037.8 Z" fill="#B4FFD7" fill-opacity="0.15" stroke="#7eb397" stroke-width="1.5" stroke-linecap="round"/>
<path d="M 485.9 1037.8 C 479.1 1039.9, 474.7 1042.0, 467.6 1043.4 C 446.7 1043.5, 436.9 1043.5, 415.1 1045.1 C 396.7 1043.8, 385.9 1044.9, 366.9 1043.9 C 358.0 1041.8, 354.3 1040.1, 345.0 1036.5 C 353.9 1034.6, 358.1 1034.2, 366.7 1033.1 C 387.1 1031.0, 395.2 1030.9, 415.5 1028.3 C 437.1 1028.4, 446.2 1029.5, 468.2 1030.0 C 475.8 1033.3, 479.3 1035.4, 485.9 1037.8 Z" fill="none" stroke="#7eb397" stroke-width="0.75" stroke-linecap="round" opacity="0.3" transform="translate(-0.2, -0.5)"/>
<path d="M 346.7 995.7 Q 345.0 1015.9 346.7 1037.8" fill="none" stroke="#7eb397" stroke-width="1.5" stroke-linecap="round"/>
<path d="M 347.2 996.4 Q 345.2 1016.1 346.5 1037.6" fill="none" stroke="#7eb397" stroke-width="0.75" stroke-linecap="round" opacity="0.3"/>
<path d="M 487.9 996.0 Q 486.6 1015.3 486.3 1038.8" fill="none" stroke="#7eb397" stroke-width="1.5" stroke-linecap="round"/>
<path d="M 487.6 995.7 Q 488.4 1016.9 486.9 1037.4" fill="none" stroke="#7eb397" stroke-width="0.75" stroke-linecap="round" opacity="0.3"/>
<path d="M 486.8 994.7 C 478.9 996.9, 474.4 998.3, 465.5 1001.6 C 446.4 1004.3, 437.0 1004.8, 418.3 1006.9 C 398.6 1005.0, 389.6 1004.5, 369.0 1004.3 C 361.1 1001.6, 355.4 1000.5, 348.0 998.0 C 355.4 996.1, 358.0 994.0, 365.9 991.2 C 385.7 990.4, 396.4 989.2, 415.7 988.9 C 435.2 987.9, 445.1 989.0, 465.0 988.9 C 474.2 990.9, 477.1 992.8, 486.8 994.7 Z" fill="#B4FFD7" fill-opacity="0.15" stroke="#7eb397" stroke-width="1.5" stroke-linecap="round"/>
<path d="M 486.8 994.7 C 478.9 996.9, 474.4 998.3, 465.5 1001.6 C 446.4 1004.3, 437.0 1004.8, 418.3 1006.9 C 398.6 1005.0, 389.6 1004.5, 369.0 1004.3 C 361.1 1001.6, 355.4 1000.5, 348.0 998.0 C 355.4 996.1, 358.0 994.0, 365.9 991.2 C 385.7 990.4, 396.4 989.2, 415.7 988.9 C 435.2 987.9, 445.1 989.0, 465.0 988.9 C 474.2 990.9, 477.1 992.8, 486.8 994.7 Z" fill="none" stroke="#7eb397" stroke-width="0.75" stroke-linecap="round" opacity="0.3" transform="translate(0.5, 0.3)"/>
<text x="417" y="1021.5" text-anchor="middle" dominant-baseline="central" font-family='"Segoe Print", "Comic Sans MS", cursive' font-size="14" fill="#333333">SVG Output</text>
</g>
<g class="node" data-id="png_out">
<rect x="187.0" y="996.0" width="140.0" height="42.0" fill="#B4FFD7" fill-opacity="0.15" stroke="none"/>
<path d="M 328.3 1038.4 C 319.3 1040.5, 313.8 1041.9, 305.7 1043.5 C 286.3 1045.8, 277.2 1045.4, 257.5 1047.4 C 237.4 1047.3, 227.9 1047.0, 207.8 1045.2 C 201.1 1042.2, 195.5 1040.1, 188.6 1036.9 C 196.9 1035.3, 199.8 1033.1, 207.7 1030.8 C 228.3 1029.6, 237.7 1030.4, 257.8 1029.4 C 277.9 1029.2, 288.5 1030.6, 308.5 1030.8 C 316.5 1034.7, 320.5 1036.0, 328.3 1038.4 Z" fill="#B4FFD7" fill-opacity="0.15" stroke="#7eb397" stroke-width="1.5" stroke-linecap="round"/>
<path d="M 328.3 1038.4 C 319.3 1040.5, 313.8 1041.9, 305.7 1043.5 C 286.3 1045.8, 277.2 1045.4, 257.5 1047.4 C 237.4 1047.3, 227.9 1047.0, 207.8 1045.2 C 201.1 1042.2, 195.5 1040.1, 188.6 1036.9 C 196.9 1035.3, 199.8 1033.1, 207.7 1030.8 C 228.3 1029.6, 237.7 1030.4, 257.8 1029.4 C 277.9 1029.2, 288.5 1030.6, 308.5 1030.8 C 316.5 1034.7, 320.5 1036.0, 328.3 1038.4 Z" fill="none" stroke="#7eb397" stroke-width="0.75" stroke-linecap="round" opacity="0.3" transform="translate(-0.7, -0.8)"/>
<path d="M 186.7 996.1 Q 185.4 1018.1 186.1 1038.6" fill="none" stroke="#7eb397" stroke-width="1.5" stroke-linecap="round"/>
<path d="M 187.5 996.1 Q 185.8 1015.7 187.4 1037.5" fill="none" stroke="#7eb397" stroke-width="0.75" stroke-linecap="round" opacity="0.3"/>
<path d="M 327.9 995.4 Q 326.4 1017.4 326.9 1037.1" fill="none" stroke="#7eb397" stroke-width="1.5" stroke-linecap="round"/>
<path d="M 326.9 996.3 Q 328.5 1015.4 327.6 1038.0" fill="none" stroke="#7eb397" stroke-width="0.75" stroke-linecap="round" opacity="0.3"/>
<path d="M 328.3 994.3 C 319.5 998.0, 316.6 999.1, 307.9 1003.5 C 288.7 1003.9, 278.1 1004.8, 257.4 1006.2 C 236.4 1004.9, 227.8 1003.0, 206.7 1001.3 C 199.5 999.2, 194.6 996.9, 186.7 994.9 C 194.4 993.4, 199.0 991.0, 206.4 989.9 C 226.9 987.9, 237.3 988.2, 256.4 986.4 C 277.4 987.3, 287.8 988.9, 307.6 990.6 C 315.2 991.4, 319.1 993.2, 328.3 994.3 Z" fill="#B4FFD7" fill-opacity="0.15" stroke="#7eb397" stroke-width="1.5" stroke-linecap="round"/>
<path d="M 328.3 994.3 C 319.5 998.0, 316.6 999.1, 307.9 1003.5 C 288.7 1003.9, 278.1 1004.8, 257.4 1006.2 C 236.4 1004.9, 227.8 1003.0, 206.7 1001.3 C 199.5 999.2, 194.6 996.9, 186.7 994.9 C 194.4 993.4, 199.0 991.0, 206.4 989.9 C 226.9 987.9, 237.3 988.2, 256.4 986.4 C 277.4 987.3, 287.8 988.9, 307.6 990.6 C 315.2 991.4, 319.1 993.2, 328.3 994.3 Z" fill="none" stroke="#7eb397" stroke-width="0.75" stroke-linecap="round" opacity="0.3" transform="translate(-0.4, 0.1)"/>
<text x="257" y="1021.5" text-anchor="middle" dominant-baseline="central" font-family='"Segoe Print", "Comic Sans MS", cursive' font-size="14" fill="#333333">PNG Output</text>
</g>
<g class="node" data-id="browser">
<path d="M 417.2 1154.0 C 442.1 1143.6, 523.0 1151.8, 499.7 1162.2 C 558.6 1162.8, 552.0 1179.4, 527.5 1180.7 C 545.9 1193.2, 521.3 1200.9, 494.0 1194.5 C 454.7 1206.1, 377.6 1205.9, 415.1 1201.0 C 365.3 1204.1, 312.2 1199.6, 340.1 1194.0 C 281.8 1194.0, 281.2 1178.0, 308.0 1179.4 C 272.2 1162.0, 314.7 1149.9, 332.6 1160.6 C 353.2 1145.8, 389.4 1143.0, 417.2 1154.0 Z" fill="#B4FFD7" fill-opacity="0.15" stroke="#7eb397" stroke-width="1.5" stroke-linecap="round" stroke-linejoin="round"/>
<path d="M 417.2 1154.0 C 442.1 1143.6, 523.0 1151.8, 499.7 1162.2 C 558.6 1162.8, 552.0 1179.4, 527.5 1180.7 C 545.9 1193.2, 521.3 1200.9, 494.0 1194.5 C 454.7 1206.1, 377.6 1205.9, 415.1 1201.0 C 365.3 1204.1, 312.2 1199.6, 340.1 1194.0 C 281.8 1194.0, 281.2 1178.0, 308.0 1179.4 C 272.2 1162.0, 314.7 1149.9, 332.6 1160.6 C 353.2 1145.8, 389.4 1143.0, 417.2 1154.0 Z" fill="none" stroke="#7eb397" stroke-width="0.75" stroke-linecap="round" opacity="0.2" transform="translate(0.6, 0.8)"/>
<text x="417" y="1170.3000000000002" text-anchor="middle" dominant-baseline="central" font-family='"Segoe Print", "Comic Sans MS", cursive' font-size="14" fill="#333333"><tspan x="417" dy="0">Live Preview</tspan><tspan x="417" dy="18.2">(Browser)</tspan></text>
</g>
</g>
</svg>