<svg xmlns="http://www.w3.org/2000/svg" viewBox="0 0 434 914" width="434" height="914">
  <rect width="434" height="914" fill="white"/>
  <text x="217" y="24" text-anchor="middle" dominant-baseline="central" font-family='"Segoe Print", "Comic Sans MS", cursive' font-size="18" fill="#333333" font-weight="bold">System Architecture</text>
  <g transform="translate(0, 40)">
<g class="group" data-id="backend">
<path d="M 90.0 277.1 L 373.9 276.1 L 372.5 595.8 L 93.9 597.0 Z" fill="#F5F5F5" fill-opacity="0.05" stroke="none"/>
<path d="M 89.2 277.7 Q 232.1 275.6 374.7 276.0" fill="none" stroke="#AAAAAA" stroke-width="1.5" stroke-linecap="round" stroke-dasharray="6,4"/>
<path d="M 89.6 276.9 Q 231.0 275.6 373.5 276.4" fill="none" stroke="#AAAAAA" stroke-width="0.75" stroke-linecap="round" opacity="0.3" stroke-dasharray="6,4"/>
<path d="M 374.4 275.2 Q 373.4 437.3 372.6 595.0" fill="none" stroke="#AAAAAA" stroke-width="1.5" stroke-linecap="round" stroke-dasharray="6,4"/>
<path d="M 373.9 276.0 Q 374.7 435.8 372.2 595.2" fill="none" stroke="#AAAAAA" stroke-width="0.75" stroke-linecap="round" opacity="0.3" stroke-dasharray="6,4"/>
<path d="M 373.3 596.4 Q 231.3 598.4 94.0 597.6" fill="none" stroke="#AAAAAA" stroke-width="1.5" stroke-linecap="round" stroke-dasharray="6,4"/>
<path d="M 372.4 595.5 Q 233.7 595.8 93.7 597.2" fill="none" stroke="#AAAAAA" stroke-width="0.75" stroke-linecap="round" opacity="0.3" stroke-dasharray="6,4"/>
<path d="M 94.0 596.4 Q 91.4 435.3 89.9 276.8" fill="none" stroke="#AAAAAA" stroke-width="1.5" stroke-linecap="round" stroke-dasharray="6,4"/>
<path d="M 94.5 597.1 Q 90.7 435.3 89.5 277.7" fill="none" stroke="#AAAAAA" stroke-width="0.75" stroke-linecap="round" opacity="0.3" stroke-dasharray="6,4"/>
<text x="104" y="291" text-anchor="start" dominant-baseline="central" font-family='"Segoe Print", "Comic Sans MS", cursive' font-size="12" fill="#AAAAAA">Backend Services</text>
</g>
<g class="edge" data-from="web" data-to="api">
<path d="M 212.4 112.1 Q 212.7 210.3 214.0 306.4" fill="none" stroke="#666666" stroke-width="1.5" stroke-linecap="round"/>
<path d="M 212.9 112.3 Q 213.7 209.1 212.6 307.4" fill="none" stroke="#666666" stroke-width="0.75" stroke-linecap="round" opacity="0.3"/>
<polygon points="213.2,306.9 208.3,297.8 217.4,297.8" fill="#666666" stroke="#666666" stroke-width="0.75" stroke-linejoin="round"/>
<rect x="179.0" y="197.5" width="68.0" height="20.0" rx="3" ry="3" fill="white" fill-opacity="0.9" stroke="none"/>
<text x="213" y="207.5" text-anchor="middle" dominant-baseline="central" font-family='"Segoe Print", "Comic Sans MS", cursive' font-size="12" fill="#666666">REST API</text>
</g>
<g class="edge" data-from="api" data-to="db">
<path d="M 188.0 366.2 Q 187.0 372.0 189.0 376.7" fill="none" stroke="#666666" stroke-width="1.5" stroke-linecap="round"/>
<path d="M 188.2 367.5 Q 189.1 371.1 188.0 376.9" fill="none" stroke="#666666" stroke-width="0.75" stroke-linecap="round" opacity="0.3"/>
<path d="M 189.0 376.6 Q 156.7 376.9 122.6 377.7" fill="none" stroke="#666666" stroke-width="1.5" stroke-linecap="round"/>
<path d="M 188.4 377.0 Q 156.0 377.2 121.8 376.8" fill="none" stroke="#666666" stroke-width="0.75" stroke-linecap="round" opacity="0.3"/>
<path d="M 122.1 377.3 Q 121.2 569.3 121.1 762.0" fill="none" stroke="#666666" stroke-width="1.5" stroke-linecap="round"/>
<path d="M 122.2 376.9 Q 121.8 567.5 121.9 762.5" fill="none" stroke="#666666" stroke-width="0.75" stroke-linecap="round" opacity="0.3"/>
<polygon points="121.7,761.8 115.9,753.4 126.9,753.4" fill="#666666" stroke="#666666" stroke-width="0.75" stroke-linejoin="round"/>
<rect x="124.5" y="365.0" width="61.0" height="20.0" rx="3" ry="3" fill="white" fill-opacity="0.9" stroke="none"/>
<text x="155" y="375" text-anchor="middle" dominant-baseline="central" font-family='"Segoe Print", "Comic Sans MS", cursive' font-size="12" fill="#666666">queries</text>
</g>
<g class="edge" data-from="api" data-to="queue">
<path d="M 185.0 130.0 Q 186.8 151.7 186.6 170.1" fill="none" stroke="#666666" stroke-width="1.5" stroke-linecap="round"/>
<path d="M 185.6 130.4 Q 184.5 149.6 185.9 169.5" fill="none" stroke="#666666" stroke-width="0.75" stroke-linecap="round" opacity="0.3"/>
<polygon points="185.8,170.1 180.8,161.2 190.9,161.3" fill="#666666" stroke="#666666" stroke-width="0.75" stroke-linejoin="round"/>
<rect x="138.0" y="138.0" width="96.0" height="20.0" rx="3" ry="3" fill="white" fill-opacity="0.9" stroke="none"/>
<text x="186" y="148" text-anchor="middle" dominant-baseline="central" font-family='"Segoe Print", "Comic Sans MS", cursive' font-size="12" fill="#666666">enqueue jobs</text>
</g>
<g class="edge" data-from="queue" data-to="worker">
<path d="M 187.0 229.4 Q 184.8 249.1 186.3 270.0" fill="none" stroke="#666666" stroke-width="1.5" stroke-linecap="round"/>
<path d="M 185.8 229.7 Q 187.1 248.5 185.8 269.6" fill="none" stroke="#666666" stroke-width="0.75" stroke-linecap="round" opacity="0.3"/>
<polygon points="186.0,269.8 181.6,262.0 191.5,261.6" fill="#666666" stroke="#666666" stroke-width="0.75" stroke-linejoin="round"/>
<rect x="155.5" y="238.0" width="61.0" height="20.0" rx="3" ry="3" fill="white" fill-opacity="0.9" stroke="none"/>
<text x="186" y="248" text-anchor="middle" dominant-baseline="central" font-family='"Segoe Print", "Comic Sans MS", cursive' font-size="12" fill="#666666">process</text>
</g>
<g class="edge" data-from="worker" data-to="s3">
<path d="M 237.8 566.9 Q 237.2 589.1 237.6 611.7" fill="none" stroke="#666666" stroke-width="1.5" stroke-linecap="round"/>
<path d="M 237.9 566.4 Q 236.4 590.4 237.8 612.0" fill="none" stroke="#666666" stroke-width="0.75" stroke-linecap="round" opacity="0.3"/>
<path d="M 238.8 612.9 Q 273.8 613.5 312.6 611.5" fill="none" stroke="#666666" stroke-width="1.5" stroke-linecap="round"/>
<path d="M 238.4 612.4 Q 275.0 610.8 312.6 611.8" fill="none" stroke="#666666" stroke-width="0.75" stroke-linecap="round" opacity="0.3"/>
<path d="M 312.8 611.2 Q 312.5 687.7 312.4 763.0" fill="none" stroke="#666666" stroke-width="1.5" stroke-linecap="round"/>
<path d="M 311.8 611.4 Q 313.9 685.5 312.1 761.6" fill="none" stroke="#666666" stroke-width="0.75" stroke-linecap="round" opacity="0.3"/>
<polygon points="311.7,761.8 306.7,752.9 317.9,753.1" fill="#666666" stroke="#666666" stroke-width="0.75" stroke-linejoin="round"/>
<rect x="227.0" y="600.0" width="96.0" height="20.0" rx="3" ry="3" fill="white" fill-opacity="0.9" stroke="none"/>
<text x="275" y="610" text-anchor="middle" dominant-baseline="central" font-family='"Segoe Print", "Comic Sans MS", cursive' font-size="12" fill="#666666">upload files</text>
</g>
<g class="node" data-id="web">
<path d="M 124.0 51.7 L 304.8 52.3 L 302.8 112.5 L 124.7 112.0 Z" fill="#4ECDC4" fill-opacity="0.15" stroke="none"/>
<path d="M 124.5 51.0 Q 214.2 50.3 305.0 52.5" fill="none" stroke="#379089" stroke-width="1.5" stroke-linecap="round"/>
<path d="M 123.6 52.0 Q 213.8 51.5 304.8 52.5" fill="none" stroke="#379089" stroke-width="0.75" stroke-linecap="round" opacity="0.3"/>
<path d="M 305.1 52.6 Q 303.9 80.7 302.1 113.2" fill="none" stroke="#379089" stroke-width="1.5" stroke-linecap="round"/>
<path d="M 304.8 52.6 Q 302.7 80.6 303.4 112.6" fill="none" stroke="#379089" stroke-width="0.75" stroke-linecap="round" opacity="0.3"/>
<path d="M 302.6 112.5 Q 211.9 112.8 124.5 111.7" fill="none" stroke="#379089" stroke-width="1.5" stroke-linecap="round"/>
<path d="M 303.3 112.6 Q 215.2 113.6 124.2 112.3" fill="none" stroke="#379089" stroke-width="0.75" stroke-linecap="round" opacity="0.3"/>
<path d="M 123.8 111.9 Q 123.4 82.3 124.3 52.4" fill="none" stroke="#379089" stroke-width="1.5" stroke-linecap="round"/>
<path d="M 125.3 111.9 Q 123.7 83.3 124.0 52.1" fill="none" stroke="#379089" stroke-width="0.75" stroke-linecap="round" opacity="0.3"/>
<text x="213" y="82" text-anchor="middle" dominant-baseline="central" font-family='"Segoe Print", "Comic Sans MS", cursive' font-size="14" fill="#333333">React Frontend</text>
</g>
<g class="node" data-id="api">
<path d="M 136.1 305.1 L 287.9 307.2 L 287.6 367.2 L 138.7 367.3 Z" fill="#FF6B6B" fill-opacity="0.15" stroke="none"/>
<path d="M 136.6 305.8 Q 212.5 304.7 288.9 307.1" fill="none" stroke="#b34b4b" stroke-width="1.5" stroke-linecap="round"/>
<path d="M 136.7 305.7 Q 210.4 305.9 287.8 307.0" fill="none" stroke="#b34b4b" stroke-width="0.75" stroke-linecap="round" opacity="0.3"/>
<path d="M 287.7 306.8 Q 289.7 338.4 286.8 368.0" fill="none" stroke="#b34b4b" stroke-width="1.5" stroke-linecap="round"/>
<path d="M 288.2 307.6 Q 288.3 338.9 287.2 367.1" fill="none" stroke="#b34b4b" stroke-width="0.75" stroke-linecap="round" opacity="0.3"/>
<path d="M 287.1 367.0 Q 211.4 366.4 139.1 367.8" fill="none" stroke="#b34b4b" stroke-width="1.5" stroke-linecap="round"/>
<path d="M 288.0 367.3 Q 212.1 367.0 138.7 367.7" fill="none" stroke="#b34b4b" stroke-width="0.75" stroke-linecap="round" opacity="0.3"/>
<path d="M 138.1 367.7 Q 138.6 335.3 135.6 304.9" fill="none" stroke="#b34b4b" stroke-width="1.5" stroke-linecap="round"/>
<path d="M 138.2 367.5 Q 136.3 336.7 135.9 304.7" fill="none" stroke="#b34b4b" stroke-width="0.75" stroke-linecap="round" opacity="0.3"/>
<text x="213" y="337" text-anchor="middle" dominant-baseline="central" font-family='"Segoe Print", "Comic Sans MS", cursive' font-size="14" fill="#333333">Express API</text>
</g>
<g class="node" data-id="queue">
<rect x="163.0" y="416.0" width="150.0" height="42.0" fill="#45B7D1" fill-opacity="0.15" stroke="none"/>
<path d="M 313.1 457.6 C 303.2 460.5, 299.3 463.3, 290.6 466.1 C 267.9 466.2, 257.4 466.5, 236.1 465.4 C 216.0 465.4, 204.8 464.7, 184.0 465.1 C 177.1 461.9, 171.8 461.3, 164.4 458.1 C 171.9 456.3, 176.1 455.1, 183.0 452.8 C 205.0 450.9, 216.2 449.3, 237.5 447.5 C 258.1 449.0, 268.8 450.0, 289.7 451.2 C 299.5 454.3, 303.0 455.1, 313.1 457.6 Z" fill="#45B7D1" fill-opacity="0.15" stroke="#308092" stroke-width="1.5" stroke-linecap="round"/>
<path d="M 313.1 457.6 C 303.2 460.5, 299.3 463.3, 290.6 466.1 C 267.9 466.2, 257.4 466.5, 236.1 465.4 C 216.0 465.4, 204.8 464.7, 184.0 465.1 C 177.1 461.9, 171.8 461.3, 164.4 458.1 C 171.9 456.3, 176.1 455.1, 183.0 452.8 C 205.0 450.9, 216.2 449.3, 237.5 447.5 C 258.1 449.0, 268.8 450.0, 289.7 451.2 C 299.5 454.3, 303.0 455.1, 313.1 457.6 Z" fill="none" stroke="#308092" stroke-width="0.75" stroke-linecap="round" opacity="0.3" transform="translate(-0.1, -0.3)"/>
<path d="M 163.5 416.9 Q 161.6 436.8 163.7 458.3" fill="none" stroke="#308092" stroke-width="1.5" stroke-linecap="round"/>
<path d="M 163.5 416.1 Q 163.1 435.0 162.6 458.3" fill="none" stroke="#308092" stroke-width="0.75" stroke-linecap="round" opacity="0.3"/>
<path d="M 312.3 415.3 Q 312.5 436.8 312.6 458.9" fill="none" stroke="#308092" stroke-width="1.5" stroke-linecap="round"/>
<path d="M 313.3 415.8 Q 314.0 437.8 313.0 458.1" fill="none" stroke="#308092" stroke-width="0.75" stroke-linecap="round" opacity="0.3"/>
<path d="M 313.6 414.9 C 305.6 418.8, 300.9 420.6, 292.0 423.0 C 269.3 422.9, 258.5 422.9, 236.8 423.7 C 216.8 423.5, 206.9 422.3, 186.2 421.8 C 178.1 419.2, 173.4 419.6, 164.4 417.8 C 174.0 414.5, 178.1 412.9, 186.5 409.1 C 207.8 408.3, 217.2 407.3, 237.3 406.1 C 258.2 407.1, 270.3 408.2, 291.3 410.7 C 300.7 412.0, 305.6 414.2, 313.6 414.9 Z" fill="#45B7D1" fill-opacity="0.15" stroke="#308092" stroke-width="1.5" stroke-linecap="round"/>
<path d="M 313.6 414.9 C 305.6 418.8, 300.9 420.6, 292.0 423.0 C 269.3 422.9, 258.5 422.9, 236.8 423.7 C 216.8 423.5, 206.9 422.3, 186.2 421.8 C 178.1 419.2, 173.4 419.6, 164.4 417.8 C 174.0 414.5, 178.1 412.9, 186.5 409.1 C 207.8 408.3, 217.2 407.3, 237.3 406.1 C 258.2 407.1, 270.3 408.2, 291.3 410.7 C 300.7 412.0, 305.6 414.2, 313.6 414.9 Z" fill="none" stroke="#308092" stroke-width="0.75" stroke-linecap="round" opacity="0.3" transform="translate(-0.5, -0.4)"/>
<text x="238" y="437" text-anchor="middle" dominant-baseline="central" font-family='"Segoe Print", "Comic Sans MS", cursive' font-size="14" fill="#333333">Redis Queue</text>
</g>
<g class="node" data-id="worker">
<path d="M 133.4 508.6 L 342.7 506.8 L 344.1 565.3 L 134.8 565.9 Z" fill="#96CEB4" fill-opacity="0.15" stroke="none"/>
<path d="M 132.8 507.7 Q 239.5 508.0 342.7 506.8" fill="none" stroke="#69907e" stroke-width="1.5" stroke-linecap="round"/>
<path d="M 133.9 509.1 Q 238.0 506.3 343.0 507.1" fill="none" stroke="#69907e" stroke-width="0.75" stroke-linecap="round" opacity="0.3"/>
<path d="M 342.1 505.9 Q 343.5 535.2 345.1 564.7" fill="none" stroke="#69907e" stroke-width="1.5" stroke-linecap="round"/>
<path d="M 342.7 507.2 Q 345.1 537.6 343.7 565.5" fill="none" stroke="#69907e" stroke-width="0.75" stroke-linecap="round" opacity="0.3"/>
<path d="M 343.5 566.2 Q 238.6 567.4 134.0 566.8" fill="none" stroke="#69907e" stroke-width="1.5" stroke-linecap="round"/>
<path d="M 344.5 565.8 Q 241.1 566.8 134.5 565.8" fill="none" stroke="#69907e" stroke-width="0.75" stroke-linecap="round" opacity="0.3"/>
<path d="M 134.8 566.7 Q 132.8 535.8 134.0 507.9" fill="none" stroke="#69907e" stroke-width="1.5" stroke-linecap="round"/>
<path d="M 134.5 565.8 Q 132.9 538.8 133.7 508.4" fill="none" stroke="#69907e" stroke-width="0.75" stroke-linecap="round" opacity="0.3"/>
<text x="238" y="537" text-anchor="middle" dominant-baseline="central" font-family='"Segoe Print", "Comic Sans MS", cursive' font-size="14" fill="#333333">Background Worker</text>
</g>
<g class="node" data-id="db">
<rect x="52.0" y="771.0" width="140.0" height="42.0" fill="#FFEAA7" fill-opacity="0.15" stroke="none"/>
<path d="M 190.9 813.0 C 182.4 815.9, 178.5 815.4, 169.9 818.6 C 151.1 820.3, 143.4 819.9, 124.0 821.9 C 102.4 821.8, 92.8 821.5, 71.4 819.9 C 63.9 817.7, 59.6 816.2, 53.1 813.1 C 61.9 809.7, 65.1 808.2, 73.2 805.9 C 92.8 805.5, 102.6 805.5, 122.5 803.6 C 143.0 805.6, 152.4 806.2, 173.1 807.0 C 180.5 808.8, 183.5 810.7, 190.9 813.0 Z" fill="#FFEAA7" fill-opacity="0.15" stroke="#b3a475" stroke-width="1.5" stroke-linecap="round"/>
<path d="M 190.9 813.0 C 182.4 815.9, 178.5 815.4, 169.9 818.6 C 151.1 820.3, 143.4 819.9, 124.0 821.9 C 102.4 821.8, 92.8 821.5, 71.4 819.9 C 63.9 817.7, 59.6 816.2, 53.1 813.1 C 61.9 809.7, 65.1 808.2, 73.2 805.9 C 92.8 805.5, 102.6 805.5, 122.5 803.6 C 143.0 805.6, 152.4 806.2, 173.1 807.0 C 180.5 808.8, 183.5 810.7, 190.9 813.0 Z" fill="none" stroke="#b3a475" stroke-width="0.75" stroke-linecap="round" opacity="0.3" transform="translate(0.0, 0.3)"/>
<path d="M 51.2 771.4 Q 53.8 790.8 52.5 812.8" fill="none" stroke="#b3a475" stroke-width="1.5" stroke-linecap="round"/>
<path d="M 52.4 771.3 Q 51.4 791.9 52.6 812.7" fill="none" stroke="#b3a475" stroke-width="0.75" stroke-linecap="round" opacity="0.3"/>
<path d="M 191.3 770.8 Q 192.5 793.4 191.7 812.6" fill="none" stroke="#b3a475" stroke-width="1.5" stroke-linecap="round"/>
<path d="M 192.2 770.5 Q 191.7 790.8 192.4 812.5" fill="none" stroke="#b3a475" stroke-width="0.75" stroke-linecap="round" opacity="0.3"/>
<path d="M 192.0 771.8 C 184.9 773.3, 180.2 775.1, 172.9 776.0 C 151.7 777.8, 141.4 776.7, 121.6 778.4 C 102.2 777.7, 92.7 776.5, 73.2 776.0 C 63.5 773.5, 59.2 772.3, 50.4 770.1 C 58.4 768.3, 62.6 768.7, 71.5 766.2 C 91.0 764.5, 100.4 762.6, 120.3 760.3 C 141.4 762.2, 150.9 763.0, 171.1 763.9 C 179.6 767.7, 184.6 769.1, 192.0 771.8 Z" fill="#FFEAA7" fill-opacity="0.15" stroke="#b3a475" stroke-width="1.5" stroke-linecap="round"/>
<path d="M 192.0 771.8 C 184.9 773.3, 180.2 775.1, 172.9 776.0 C 151.7 777.8, 141.4 776.7, 121.6 778.4 C 102.2 777.7, 92.7 776.5, 73.2 776.0 C 63.5 773.5, 59.2 772.3, 50.4 770.1 C 58.4 768.3, 62.6 768.7, 71.5 766.2 C 91.0 764.5, 100.4 762.6, 120.3 760.3 C 141.4 762.2, 150.9 763.0, 171.1 763.9 C 179.6 767.7, 184.6 769.1, 192.0 771.8 Z" fill="none" stroke="#b3a475" stroke-width="0.75" stroke-linecap="round" opacity="0.3" transform="translate(0.1, 0.4)"/>
<text x="122" y="792" text-anchor="middle" dominant-baseline="central" font-family='"Segoe Print", "Comic Sans MS", cursive' font-size="14" fill="#333333">PostgreSQL</text>
</g>
<g class="node" data-id="s3">
<path d="M 311.5 771.7 C 326.5 760.4, 368.2 766.4, 357.9 779.0 C 390.0 777.1, 383.1 796.8, 372.3 796.6 C 381.9 807.4, 368.9 815.7, 353.7 811.1 C 331.3 819.7, 292.6 822.2, 311.3 815.7 C 284.6 817.6, 254.0 815.0, 268.7 808.2 C 240.2 805.2, 239.9 795.8, 253.9 794.8 C 235.0 777.1, 256.9 764.7, 269.2 776.3 C 277.5 757.2, 299.2 760.8, 311.5 771.7 Z" fill="#DDA0DD" fill-opacity="0.15" stroke="#9b709b" stroke-width="1.5" stroke-linecap="round" stroke-linejoin="round"/>
<path d="M 311.5 771.7 C 326.5 760.4, 368.2 766.4, 357.9 779.0 C 390.0 777.1, 383.1 796.8, 372.3 796.6 C 381.9 807.4, 368.9 815.7, 353.7 811.1 C 331.3 819.7, 292.6 822.2, 311.3 815.7 C 284.6 817.6, 254.0 815.0, 268.7 808.2 C 240.2 805.2, 239.9 795.8, 253.9 794.8 C 235.0 777.1, 256.9 764.7, 269.2 776.3 C 277.5 757.2, 299.2 760.8, 311.5 771.7 Z" fill="none" stroke="#9b709b" stroke-width="0.75" stroke-linecap="round" opacity="0.2" transform="translate(0.2, 1.0)"/>
<text x="312" y="792" text-anchor="middle" dominant-baseline="central" font-family='"Segoe Print", "Comic Sans MS", cursive' font-size="14" fill="#333333">S3 Storage</text>
</g>
</g>
</svg>